<svg xmlns="http://www.w3.org/2000/svg" version="1.1" xmlns:xlink="http://www.w3.org/1999/xlink" xmlns:svgjs="http://svgjs.dev/svgjs" width="1500" height="939" viewBox="0 0 1500 939"><g transform="matrix(1,0,0,1,-0.9090909090909918,-1.5145161290323017)"><svg viewBox="0 0 396 248" data-background-color="#000000" preserveAspectRatio="xMidYMid meet" height="939" width="1500" xmlns="http://www.w3.org/2000/svg" xmlns:xlink="http://www.w3.org/1999/xlink"><g id="tight-bounds" transform="matrix(1,0,0,1,0.2400000000000091,0.4000000000000057)"><svg viewBox="0 0 395.52 247.2" height="247.2" width="395.52"><g><svg></svg></g><g><svg viewBox="0 0 395.52 247.2" height="247.2" width="395.52"><g transform="matrix(1,0,0,1,79.80695461741423,47.215199999999996)"><svg viewBox="0 0 235.9060907651715 152.7696" height="152.7696" width="235.9060907651715"><g><svg viewBox="0 0 235.9060907651715 152.7696" height="152.7696" width="235.9060907651715"><g><svg viewBox="0 0 235.9060907651715 152.7696" height="152.7696" width="235.9060907651715"><g><svg viewBox="0 0 235.9060907651715 152.7696" height="152.7696" width="235.9060907651715"><g id="textblocktransform"><svg viewBox="0 0 235.9060907651715 152.7696" height="152.7696" width="235.9060907651715" id="textblock"><g><svg viewBox="0 0 235.9060907651715 152.7696" height="152.7696" width="235.9060907651715"><g transform="matrix(1,0,0,1,0,0)"><svg width="235.9060907651715" viewBox="3.25 -36.11 57.15 37.01" height="152.7696" data-palette-color="#ffffff"><path d="M10.25-7.01L10.25 0 3.25 0 3.25-35.01 10.25-35.01 10.25-17.5 23.29-35.01 31.25-35.01 20.19-20.24 31.25 0 23.29 0 15.6-14.16 10.25-7.01ZM60.4-10.01L60.4-10.01Q60.4-7.64 59.32-5.64 58.25-3.64 56.38-2.19 54.51-0.73 52.02 0.09 49.53 0.9 46.7 0.9L46.7 0.9Q43.87 0.9 41.38 0.09 38.89-0.73 37.02-2.19 35.15-3.64 34.08-5.64 33.01-7.64 33.01-10.01L33.01-10.01Q33.01-11.38 33.37-12.68 33.74-13.99 34.43-15.14 35.13-16.28 36.11-17.25 37.08-18.21 38.3-18.9L38.3-18.9Q37.55-19.56 36.95-20.41 36.35-21.26 35.92-22.22 35.5-23.17 35.28-24.18 35.06-25.2 35.06-26.2L35.06-26.2Q35.06-28.25 35.97-30.04 36.89-31.84 38.47-33.19 40.06-34.55 42.19-35.33 44.31-36.11 46.7-36.11L46.7-36.11Q49.12-36.11 51.24-35.33 53.37-34.55 54.97-33.19 56.56-31.84 57.48-30.04 58.4-28.25 58.4-26.2L58.4-26.2Q58.4-25.2 58.16-24.18 57.93-23.17 57.52-22.2 57.1-21.24 56.5-20.39 55.91-19.53 55.15-18.85L55.15-18.85Q56.35-18.16 57.32-17.21 58.3-16.26 58.98-15.11 59.67-13.96 60.03-12.67 60.4-11.38 60.4-10.01ZM51.54-25.44L51.54-25.44Q51.54-26.29 51.16-27.04 50.78-27.78 50.13-28.34 49.48-28.91 48.61-29.22 47.73-29.54 46.75-29.54L46.75-29.54Q45.75-29.54 44.87-29.22 43.99-28.91 43.34-28.34 42.7-27.78 42.32-27.04 41.94-26.29 41.94-25.44L41.94-25.44Q41.94-24.58 42.32-23.85 42.7-23.12 43.34-22.58 43.99-22.05 44.87-21.73 45.75-21.41 46.75-21.41L46.75-21.41Q47.73-21.41 48.61-21.73 49.48-22.05 50.13-22.58 50.78-23.12 51.16-23.85 51.54-24.58 51.54-25.44ZM53.44-10.21L53.44-10.21Q53.44-11.38 52.91-12.39 52.39-13.4 51.47-14.16 50.56-14.92 49.33-15.36 48.09-15.8 46.7-15.8L46.7-15.8Q45.31-15.8 44.09-15.36 42.87-14.92 41.95-14.16 41.04-13.4 40.51-12.39 39.99-11.38 39.99-10.21L39.99-10.21Q39.99-9.03 40.51-8.06 41.04-7.08 41.95-6.37 42.87-5.66 44.09-5.26 45.31-4.86 46.7-4.86L46.7-4.86Q48.09-4.86 49.33-5.26 50.56-5.66 51.47-6.37 52.39-7.08 52.91-8.06 53.44-9.03 53.44-10.21Z" opacity="1" transform="matrix(1,0,0,1,0,0)" fill="#ffffff" class="wordmark-text-0" data-fill-palette-color="primary" id="text-0"></path></svg></g></svg></g></svg></g></svg></g></svg></g></svg></g></svg></g><path d="M262.108 41.215L262.108 0 14.908 0 14.908 247.2 262.108 247.2 262.108 205.985 248.331 205.985 248.331 233.423 28.685 233.423 28.685 13.777 248.331 13.777 248.331 41.215Z" fill="#ffffff" stroke="transparent" data-fill-palette-color="tertiary"></path></svg></g><defs></defs></svg><rect width="395.52" height="247.2" fill="none" stroke="none" visibility="hidden"></rect></g></svg></g></svg>